<svg width="24" height="24" viewBox="0 0 24 24" fill="none" xmlns="http://www.w3.org/2000/svg">
    <path d="M12.0001 7.20039C11.3636 7.20039 10.7531 6.94753 10.303 6.49745C9.85295 6.04736 9.6001 5.43691 9.6001 4.80039C9.6001 4.16387 9.85295 3.55342 10.303 3.10333C10.7531 2.65325 11.3636 2.40039 12.0001 2.40039C12.6366 2.40039 13.2471 2.65325 13.6972 3.10333C14.1472 3.55342 14.4001 4.16387 14.4001 4.80039C14.4001 5.43691 14.1472 6.04736 13.6972 6.49745C13.2471 6.94753 12.6366 7.20039 12.0001 7.20039Z" fill="#424242"/>
    <path d="M12.0001 14.3996C11.3636 14.3996 10.7531 14.1468 10.303 13.6967C9.85295 13.2466 9.6001 12.6361 9.6001 11.9996C9.6001 11.3631 9.85295 10.7526 10.303 10.3026C10.7531 9.85247 11.3636 9.59961 12.0001 9.59961C12.6366 9.59961 13.2471 9.85247 13.6972 10.3026C14.1472 10.7526 14.4001 11.3631 14.4001 11.9996C14.4001 12.6361 14.1472 13.2466 13.6972 13.6967C13.2471 14.1468 12.6366 14.3996 12.0001 14.3996Z" fill="#424242"/>
    <path d="M12.0001 21.6008C11.3636 21.6008 10.7531 21.3479 10.303 20.8978C9.85295 20.4477 9.6001 19.8373 9.6001 19.2008C9.6001 18.5643 9.85295 17.9538 10.303 17.5037C10.7531 17.0536 11.3636 16.8008 12.0001 16.8008C12.6366 16.8008 13.2471 17.0536 13.6972 17.5037C14.1472 17.9538 14.4001 18.5643 14.4001 19.2008C14.4001 19.8373 14.1472 20.4477 13.6972 20.8978C13.2471 21.3479 12.6366 21.6008 12.0001 21.6008Z" fill="#424242"/>
</svg>