<svg width="20" height="20" viewBox="0 0 20 20" fill="none" xmlns="http://www.w3.org/2000/svg">
  <path d="M18.8952 1.10308C18.4452 0.653148 17.8348 0.400391 17.1984 0.400391C16.562 0.400391 15.9517 0.653148 15.5016 1.10308L6.39844 10.2063V13.5999H9.79204L18.8952 4.49668C19.3452 4.04661 19.5979 3.43627 19.5979 2.79988C19.5979 2.16348 19.3452 1.55314 18.8952 1.10308Z"/>
  <path fill-rule="evenodd" clip-rule="evenodd" d="M0.398438 5.20078C0.398437 4.56426 0.651294 3.95381 1.10138 3.50372C1.55147 3.05364 2.16192 2.80078 2.79844 2.80078H7.59844C7.9167 2.80078 8.22192 2.92721 8.44697 3.15225C8.67201 3.3773 8.79844 3.68252 8.79844 4.00078C8.79844 4.31904 8.67201 4.62427 8.44697 4.84931C8.22192 5.07435 7.9167 5.20078 7.59844 5.20078H2.79844V17.2008H14.7984V12.4008C14.7984 12.0825 14.9249 11.7773 15.1499 11.5523C15.375 11.3272 15.6802 11.2008 15.9984 11.2008C16.3167 11.2008 16.6219 11.3272 16.847 11.5523C17.072 11.7773 17.1984 12.0825 17.1984 12.4008V17.2008C17.1984 17.8373 16.9456 18.4477 16.4955 18.8978C16.0454 19.3479 15.435 19.6008 14.7984 19.6008H2.79844C2.16192 19.6008 1.55147 19.3479 1.10138 18.8978C0.651294 18.4477 0.398438 17.8373 0.398438 17.2008V5.20078Z" />
</svg>
