<svg width="14" height="10" viewBox="0 0 14 10" fill="none" xmlns="http://www.w3.org/2000/svg">
    <path d="M0.602051 1.70642L6.99965 4.90482L13.3973 1.70642C13.3736 1.29877 13.1949 0.915609 12.8979 0.6354C12.6009 0.355191 12.208 0.199144 11.7997 0.199219H2.19965C1.79132 0.199144 1.39841 0.355191 1.10139 0.6354C0.804377 0.915609 0.625734 1.29877 0.602051 1.70642Z" fill="#010101"/>
    <path d="M13.4001 3.49414L7.0001 6.69414L0.600098 3.49414V8.19974C0.600098 8.62409 0.768669 9.03105 1.06873 9.33111C1.36878 9.63117 1.77575 9.79974 2.2001 9.79974H11.8001C12.2244 9.79974 12.6314 9.63117 12.9315 9.33111C13.2315 9.03105 13.4001 8.62409 13.4001 8.19974V3.49414Z" fill="#010101"/>
</svg>